<svg width="64" height="64" viewBox="0 0 64 64" xmlns="http://www.w3.org/2000/svg" xmlns:xlink="http://www.w3.org/1999/xlink">
  <defs>
    <path d="M2 0h36a2 2 0 0 1 2 2v12c0 7.732-6.268 14-14 14H14C6.268 28 0 21.732 0 14V2a2 2 0 0 1 2-2z" id="a"/>
  </defs>
  <g fill="none" fill-rule="evenodd">
    <path d="M20.511 0H43.49c7.132 0 9.718.743 12.326 2.137a14.538 14.538 0 0 1 6.048 6.048C63.257 10.793 64 13.38 64 20.511V43.49c0 7.132-.743 9.718-2.137 12.326a14.538 14.538 0 0 1-6.048 6.048C53.207 63.257 50.62 64 43.489 64H20.51c-7.132 0-9.718-.743-12.326-2.137a14.538 14.538 0 0 1-6.048-6.048C.743 53.207 0 50.62 0 43.489V20.51c0-7.132.743-9.718 2.137-12.326a14.538 14.538 0 0 1 6.048-6.048C10.793.743 13.38 0 20.511 0z" fill="#3F51B5"/>
    <path d="M29.1 12H27a2 2 0 1 1 0-4h1a3 3 0 0 1 3 3h12a5 5 0 0 1 5 5h-.083c.055.325.083.66.083 1v7a5 5 0 0 1-5 5H16v-1a8 8 0 0 1 8-8h17v-4h-7a5.002 5.002 0 0 1-4.9-4zm-6.6-8h1a1.5 1.5 0 0 1 0 3h-1a1.5 1.5 0 0 1 0-3z" fill="#9FA8DA"/>
    <g transform="translate(12 26)">
      <mask id="b" fill="#fff">
        <use xlink:href="#a"/>
      </mask>
      <use fill="#FFF" xlink:href="#a"/>
      <g mask="url(#b)">
        <path d="M22 14h8a2 2 0 0 1 2 2v12H20V16a2 2 0 0 1 2-2z" fill="#9FA8DA"/>
        <path d="M29 21h-1" stroke="#3F51B5" stroke-width="2" stroke-linecap="round"/>
      </g>
    </g>
    <g transform="translate(17 31)">
      <rect fill="#3F51B5" width="10" height="10" rx="1"/>
      <path d="M5 5h4-8 4V1v8-4zM1 0h8a1 1 0 0 1 1 1v8a1 1 0 0 1-1 1H1a1 1 0 0 1-1-1V1a1 1 0 0 1 1-1z" stroke="#9FA8DA" stroke-width="2"/>
    </g>
  </g>
</svg>
