<svg viewBox="0 0 64 64" xmlns="http://www.w3.org/2000/svg">
  <path d="M20.511 0H43.49c7.132 0 9.718.743 12.326 2.137a14.538 14.538 0 0 1 6.048 6.048C63.257 10.793 64 13.38 64 20.511V43.49c0 7.132-.743 9.718-2.137 12.326a14.538 14.538 0 0 1-6.048 6.048C53.207 63.257 50.62 64 43.489 64H20.51c-7.132 0-9.718-.743-12.326-2.137a14.538 14.538 0 0 1-6.048-6.048C.743 53.207 0 50.62 0 43.489V20.51c0-7.132.743-9.718 2.137-12.326a14.538 14.538 0 0 1 6.048-6.048C10.793.743 13.38 0 20.511 0z" fill="#3F51B5"/>
  <path d="M31 12h12a5 5 0 0 1 5 5v13H16v-1a8 8 0 0 1 8-8h15a2 2 0 1 0 0-4h-7a3 3 0 0 1-3-3v-1h-2a2 2 0 1 1 0-4h2a2 2 0 0 1 2 2v1zm-8.5-7h1a1.5 1.5 0 0 1 0 3h-1a1.5 1.5 0 0 1 0-3zm8.5 6h1v1h-1v-1zm-3 2h1v1h-1v-1zm4-1v-1h-1a1 1 0 0 0 1 1zm-4 1v1h1a1 1 0 0 0-1-1z" fill="#9FA8DA"/>
  <path d="M14 27h36a2 2 0 0 1 2 2v12c0 7.732-6.268 14-14 14H26c-7.732 0-14-6.268-14-14V29a2 2 0 0 1 2-2z" fill="#FFF"/>
  <path d="M33 41h8a2 2 0 0 1 2 2v14H31V43a2 2 0 0 1 2-2z" fill="#3F51B5"/>
  <rect fill="#3F51B5" x="17" y="31" width="8" height="8" rx="1"/>
</svg>
