<svg width="64" height="64" viewBox="0 0 64 64" xmlns="http://www.w3.org/2000/svg">
  <path d="M48 27h2a2 2 0 0 1 2 2v12c0 5.97-3.737 11.068-9 13.08V43a2 2 0 0 0-2-2h-8a2 2 0 0 0-2 2v12h-5c-7.732 0-14-6.268-14-14V29a2 2 0 0 1 2-2h2.252c.888-3.45 4.02-6 7.748-6h15a2 2 0 1 0 0-4h-7a3 3 0 0 1-3-3v-1h-2a2 2 0 1 1 0-4h2a2 2 0 0 1 2 2v1h12a5 5 0 0 1 5 5v10zM22.5 5h1a1.5 1.5 0 0 1 0 3h-1a1.5 1.5 0 0 1 0-3zm8.5 6h1v1h-1v-1zm-3 2h1v1h-1v-1zm4-1v-1h-1a1 1 0 0 0 1 1zm-4 1a1 1 0 0 1 1 1h-1v-1zM18 31a1 1 0 0 0-1 1v6a1 1 0 0 0 1 1h6a1 1 0 0 0 1-1v-6a1 1 0 0 0-1-1h-6z" fill="#000" fill-rule="evenodd"/>
</svg>
