<svg version="1" xmlns="http://www.w3.org/2000/svg" width="933.333" height="933.333" viewBox="0 0 700.000000 700.000000"><path d="M244 55c-6.7 1.2-9.7 3.6-12.9 10.3-3.3 6.8-.3 15.6 6.7 19.9 3 1.9 4.9 2.2 13.8 2.2 9.5-.1 10.6-.3 14.4-2.8 11.3-7.4 8.5-25.9-4.2-29.1-3.6-.9-13.7-1.2-17.8-.5zM288.7 99.7c-11.7 3.4-18.1 17.1-13.7 28.9 1.5 3.7 7.3 9.6 11.5 11.5 2.9 1.3 6.5 1.9 12.8 1.9 13.5 0 16.3 2 17.8 12.7 1.5 11.5 6.2 19.6 14.3 25.2 8.4 5.8 10.9 6.1 56.5 6.1 24.4 0 43.1.4 45.2 1 7.4 2.1 14 10.3 15.2 19 1.1 7.3-3.9 16.5-11.2 20.8l-4.6 2.7-90.6.1c-49.8 0-91 .4-91.7.8-.6.3-3 .9-5.4 1.2-5.6.8-16.9 4.9-23.8 8.6-18.7 10.1-33.6 27.5-40.5 47l-2.8 7.8-7.1.1c-3.9.1-9.6.1-12.6 0-9.2-.2-14.9 1.8-20 6.9-2.5 2.5-5 6.1-5.6 8.2-1.8 5.7-1.5 145.3.3 158.3 4.2 30.9 16.3 57.5 36.7 80.7 24.9 28.3 55.8 45 94.1 50.9 5 .7 20.8 1.3 41.8 1.3l33.7.2v-67.2c0-47.5.3-68.1 1.1-70.5 2.3-6.8 9.2-13.5 15.4-14.8 1.1-.2 23.6-.4 50-.5l48-.1 4.5 2.4c5.4 2.8 7.6 5.2 10.3 11.1 2 4.4 2 6.4 2 66.8V591l2.1-.6c3.6-1 16.8-7.6 23.6-11.7 10.1-6.1 18.7-13.1 28.5-23.1 24.3-24.6 38.3-53.8 43.4-90.6.9-6.6.9-151.2 0-154-1.9-5.9-6-10.5-11.9-13.6-3.4-1.7-6.1-2-27.2-2.3l-3.8-.1v-57.3c-.1-62.9-.2-64.6-6.1-76.5-4.5-9.2-15.2-19.8-24.4-24.1-3.8-1.8-7.6-3.4-8.5-3.6-.8-.2-3.5-.8-6-1.4-2.9-.7-25.7-1.1-65-1-33.3 0-62.4 0-64.7-.1-6.5 0-10.1-3.7-11.4-11.9-1.5-9.7-4.6-14.4-12-18.1-3.9-2.1-6-2.3-18.9-2.5-10-.1-16.1.3-19.3 1.2zm-20.3 241.4c5.2 4.1 5.2 4.7 5.1 42.4-.1 37.4-.2 38-5.2 41.2-2.4 1.6-6.3 1.8-37.7 1.9-22.5 0-36-.3-37.6-1-3.1-1.3-5.9-4.3-6.6-7-.3-1.2-.4-18.1-.2-37.7.3-34.1.4-35.8 2.3-37.9 1.1-1.2 2.9-2.6 4-3.1 1.1-.4 18-.8 37.6-.8 34.7-.1 35.7 0 38.3 2z"/></svg>