<?xml version="1.0" standalone="no"?>
<!DOCTYPE svg PUBLIC "-//W3C//DTD SVG 20010904//EN"
 "http://www.w3.org/TR/2001/REC-SVG-20010904/DTD/svg10.dtd">
<svg version="1.0" xmlns="http://www.w3.org/2000/svg"
 width="700.000000pt" height="700.000000pt" viewBox="0 0 700.000000 700.000000"
 preserveAspectRatio="xMidYMid meet">
<metadata>
Created by potrace 1.11, written by Peter Selinger 2001-2013
</metadata>
<g transform="translate(0.000000,700.000000) scale(0.100000,-0.100000)"
fill="#000000" stroke="none">
<path d="M1606 6984 c-68 -21 -149 -104 -169 -170 -22 -74 -14 -154 21 -217
110 -196 383 -188 480 15 53 108 29 233 -59 312 -22 21 -57 44 -76 52 -53 23
-141 26 -197 8z"/>
<path d="M2232 6554 c-106 -24 -187 -90 -233 -189 -26 -55 -28 -68 -26 -170 2
-102 5 -116 34 -176 52 -104 131 -173 235 -204 l55 -16 0 -112 c-1 -284 45
-418 193 -568 97 -98 198 -154 335 -185 17 -4 239 -8 495 -10 256 -2 475 -3
488 -3 23 -1 23 -3 21 -109 l-1 -109 -1087 1 c-597 1 -1126 -2 -1176 -6 -205
-17 -392 -105 -540 -253 -116 -116 -199 -263 -231 -407 -9 -40 -19 -79 -23
-87 -5 -10 -58 -14 -261 -15 -241 -2 -258 -3 -304 -24 -28 -13 -65 -34 -84
-48 -40 -31 -93 -113 -110 -169 -9 -30 -12 -332 -11 -1215 0 -1120 1 -1179 20
-1265 74 -349 239 -618 539 -879 113 -98 329 -219 483 -271 189 -63 192 -63
977 -61 l715 1 1 1040 c0 572 3 1054 7 1071 6 21 19 37 45 52 36 20 48 20 614
19 l578 -2 32 -33 33 -32 1 -1058 1 -1057 169 0 c182 0 241 5 348 30 185 43
355 120 517 234 92 66 239 203 300 281 118 151 213 335 253 495 l13 50 134 1
c74 1 152 4 174 8 22 4 52 9 66 11 142 20 347 110 489 215 258 192 425 470
477 793 9 56 9 289 0 352 -75 513 -501 939 -1012 1011 -28 4 -103 8 -167 8
-65 1 -118 3 -118 6 0 3 -2 43 -4 90 -6 163 -67 261 -203 322 -46 21 -64 22
-378 24 -181 2 -333 3 -337 3 -3 1 16 34 42 74 52 78 94 189 105 277 9 68 9
1207 0 1275 -19 159 -95 314 -210 431 -85 86 -151 133 -252 178 -133 58 -143
58 -914 60 l-707 1 -27 63 c-49 111 -158 210 -270 244 -73 22 -234 28 -303 12z
m-534 -3511 c51 -38 52 -43 52 -418 0 -374 -1 -380 -51 -418 -25 -18 -45 -19
-381 -19 -300 0 -360 3 -385 16 -57 29 -58 40 -58 427 1 320 3 357 18 380 19
29 54 46 102 51 17 2 176 2 353 2 306 -1 325 -3 350 -21z m4178 -207 c67 -7
149 -38 220 -85 291 -191 331 -599 82 -842 -51 -50 -156 -119 -181 -119 -9 0
-18 -4 -21 -9 -9 -14 -162 -34 -218 -27 -29 3 -57 6 -63 6 -10 0 -12 1037 -2
1063 3 8 25 14 53 16 27 1 50 4 52 6 2 2 9 2 15 0 7 -2 35 -6 63 -9z"/>
</g>
</svg>
